<?xml version="1.0" encoding="utf-8"?>
<!-- Generator: Adobe Illustrator 23.0.3, SVG Export Plug-In . SVG Version: 6.00 Build 0)  -->
<svg version="1.1" id="Layer_1" xmlns="http://www.w3.org/2000/svg" xmlns:xlink="http://www.w3.org/1999/xlink" x="0px" y="0px"
	 viewBox="0 0 497 582.1" style="enable-background:new 0 0 497 582.1;" xml:space="preserve">
<style type="text/css">
	.st0{fill:#FFFFFF;}
	.st1{fill:#9FC7D1;}
	.st2{fill:#3C4A53;}
</style>
<path class="st0" d="M421.7,204.3l43.2-32.5c10.8-8.1,16.5-21.1,15.1-34.6c-1.4-13.5-9.6-25-21.9-30.7c-15.4-7.2-33.9-3.2-45.1,9.6
	l-15.3,17.6c-2.3,2.7-6.2,3.5-9.4,2c-3.2-1.5-5.1-5-4.5-8.5l3.7-23.1c2.7-16.8-6.2-33.5-21.6-40.7l-4-1.9
	c-11.9-5.6-25.6-4.6-36.7,2.4c-11.1,7.1-17.7,19.1-17.7,32.3l0,54.7L421.7,204.3z"/>
<rect x="346.2" y="139.4" transform="matrix(0.4226 -0.9063 0.9063 0.4226 23.8395 436.1569)" class="st1" width="16" height="120"/>
<g>
	<path class="st0" d="M157.1,319.3c7.6,3.5,12.1,2.7,18.4,1.4c7.1-1.4,15.9-3.1,28.2,2.6c12.3,5.7,16.7,13.6,20.2,19.9
		c3.1,5.6,5.3,9.6,12.9,13.2c7.6,3.5,12.1,2.7,18.4,1.4c7.1-1.4,15.9-3.1,28.2,2.7c12.3,5.7,16.7,13.6,20.2,19.9
		c3.1,5.6,5.3,9.6,12.9,13.2c7.6,3.5,12.1,2.7,18.4,1.4c7.1-1.4,15.9-3.1,28.2,2.7c12.3,5.8,16.7,13.6,20.2,19.9
		c3.1,5.6,5.3,9.6,13,13.2c7.6,3.6,12.2,2.7,18.4,1.5c3.9-0.8,8.5-1.6,13.8-1.2l-26.7-183l-115.3-53.8L134,292.7
		c5.1,4.5,7.8,9.3,10.1,13.4C147.2,311.7,149.5,315.7,157.1,319.3z M405.8,382.3c4,1.9,5.7,6.6,3.9,10.6c-1.9,4-6.6,5.7-10.6,3.9
		c-4-1.9-5.7-6.6-3.9-10.6C397,382.1,401.8,380.4,405.8,382.3z M369.5,365.4c4,1.9,5.7,6.6,3.9,10.6c-1.9,4-6.6,5.7-10.6,3.9
		c-4-1.9-5.7-6.6-3.9-10.6C360.7,365.2,365.5,363.5,369.5,365.4z M333.3,348.5c4,1.9,5.7,6.6,3.9,10.6c-1.9,4-6.6,5.7-10.6,3.9
		c-4-1.9-5.7-6.6-3.9-10.6C324.5,348.3,329.3,346.6,333.3,348.5z M297,331.6c4,1.9,5.7,6.6,3.9,10.6s-6.6,5.7-10.6,3.9
		s-5.7-6.6-3.9-10.6C288.2,331.4,293,329.7,297,331.6z M260.8,314.7c4,1.9,5.7,6.6,3.9,10.6c-1.9,4-6.6,5.7-10.6,3.9
		c-4-1.9-5.7-6.6-3.9-10.6C252,314.5,256.7,312.8,260.8,314.7z M224.5,297.8c4,1.9,5.7,6.6,3.9,10.6c-1.9,4-6.6,5.7-10.6,3.9
		c-4-1.9-5.7-6.6-3.9-10.6C215.7,297.6,220.5,295.9,224.5,297.8z M188.2,280.9c4,1.9,5.7,6.6,3.9,10.6c-1.9,4-6.6,5.7-10.6,3.9
		c-4-1.9-5.7-6.6-3.9-10.6C179.5,280.7,184.2,279,188.2,280.9z"/>
	<path class="st0" d="M417.8,448c-7.1,1.4-15.9,3.1-28.2-2.7s-16.7-13.6-20.2-19.9c-3.1-5.6-5.3-9.6-13-13.2
		c-7.6-3.6-12.1-2.7-18.4-1.4c-7.1,1.4-15.9,3.1-28.2-2.7c-12.3-5.7-16.7-13.6-20.2-19.9c-3.1-5.6-5.3-9.6-12.9-13.2
		c-7.6-3.5-12.1-2.7-18.4-1.4c-7.1,1.4-15.9,3.1-28.2-2.7c-12.3-5.7-16.7-13.6-20.2-19.9c-3.1-5.6-5.3-9.6-12.9-13.2
		c-7.6-3.5-12.1-2.7-18.4-1.4c-7.1,1.4-15.9,3.1-28.2-2.7c-12.3-5.7-16.7-13.6-20.2-19.9c-2.7-4.9-5-8.6-10.6-11.8l-97.2,62.8
		c4,4,6.2,8.3,8.1,12c2.7,5.3,4.7,9.2,11.6,12.4c6.9,3.2,11.1,2.2,17,0.9c6.9-1.6,15.4-3.5,27.3,2c11.8,5.5,15.8,13.3,19.1,19.6
		c2.8,5.3,4.7,9.2,11.6,12.4c6.9,3.2,11.1,2.2,17,0.9c6.9-1.6,15.4-3.5,27.3,2c11.8,5.5,15.9,13.3,19.1,19.6
		c2.8,5.3,4.7,9.2,11.6,12.4c6.9,3.2,11.1,2.3,17,0.9c6.9-1.6,15.4-3.5,27.3,2c11.8,5.5,15.9,13.3,19.1,19.6
		c2.8,5.3,4.7,9.2,11.6,12.4c6.9,3.2,11.1,2.3,17,0.9c6.9-1.6,15.4-3.5,27.3,2c11.8,5.5,15.9,13.3,19.1,19.6
		c2.7,5.3,4.7,9.2,11.6,12.4c6.9,3.2,11.1,2.3,17,0.9c6.9-1.6,15.4-3.5,27.3,2c11.9,5.5,15.9,13.3,19.1,19.6
		c2.8,5.3,4.8,9.2,11.7,12.4c6.9,3.2,11.1,2.3,17,0.9c4-0.9,8.7-2,14.2-1.5L431,447.5C426.2,446.4,422.5,447.1,417.8,448z
		 M61.6,363.1c-4-1.9-5.7-6.6-3.9-10.6c1.9-4,6.6-5.7,10.6-3.9s5.7,6.6,3.9,10.6C70.4,363.2,65.6,364.9,61.6,363.1z M97.9,380
		c-4-1.9-5.7-6.6-3.9-10.6c1.9-4,6.6-5.7,10.6-3.9s5.7,6.6,3.9,10.6C106.7,380.1,101.9,381.8,97.9,380z M134.2,396.9
		c-4-1.9-5.7-6.6-3.9-10.6c1.9-4,6.6-5.7,10.6-3.9c4,1.9,5.7,6.6,3.9,10.6C142.9,397,138.2,398.7,134.2,396.9z M170.4,413.8
		c-4-1.9-5.7-6.6-3.9-10.6c1.9-4,6.6-5.7,10.6-3.9c4,1.9,5.7,6.6,3.9,10.6C179.2,413.9,174.4,415.6,170.4,413.8z M206.7,430.7
		c-4-1.9-5.7-6.6-3.9-10.6c1.9-4,6.6-5.7,10.6-3.9s5.7,6.6,3.9,10.6C215.4,430.8,210.7,432.5,206.7,430.7z M242.9,447.6
		c-4-1.9-5.7-6.6-3.9-10.6c1.9-4,6.6-5.7,10.6-3.9s5.7,6.6,3.9,10.6S246.9,449.4,242.9,447.6z M279.2,464.5c-4-1.9-5.7-6.6-3.9-10.6
		c1.9-4,6.6-5.7,10.6-3.9c4,1.9,5.7,6.6,3.9,10.6C287.9,464.6,283.2,466.3,279.2,464.5z M315.4,481.4c-4-1.9-5.7-6.6-3.9-10.6
		c1.9-4,6.6-5.7,10.6-3.9c4,1.9,5.7,6.6,3.9,10.6C324.2,481.5,319.4,483.3,315.4,481.4z M351.7,498.3c-4-1.9-5.7-6.6-3.9-10.6
		c1.9-4,6.6-5.7,10.6-3.9c4,1.9,5.7,6.6,3.9,10.6C360.4,498.4,355.7,500.2,351.7,498.3z M387.9,515.2c-4-1.9-5.7-6.6-3.9-10.6
		c1.9-4,6.6-5.7,10.6-3.9c4,1.9,5.7,6.6,3.9,10.6C396.7,515.3,391.9,517.1,387.9,515.2z M430.9,517.6c4,1.9,5.7,6.6,3.9,10.6
		s-6.6,5.7-10.6,3.9c-4-1.9-5.7-6.6-3.9-10.6S426.9,515.7,430.9,517.6z"/>
</g>
<g>
	<path class="st2" d="M465.4,573l-48.1-329.2l11.7-25l45.5-34.2c15.4-11.6,23.4-29.9,21.4-49c-1.5-14.7-8.7-27.6-19.8-36.5l21-45
		l-14.5-6.8L462.1,91c-20-8-43.1-3.5-58.4,11.6c1.7-21.4-9.6-42-28.6-52.2l20.4-43.7L381,0l-20.6,44.2c-14.8-4.2-30.7-2.1-43.9,6.4
		c-15.7,10-25.1,27.1-25.1,45.8l0,58l-11.8,25.3L3.7,357.8c-2.4,1.6-3.8,4.4-3.6,7.3c0.2,2.9,2,5.5,4.6,6.7
		c6.9,3.2,8.9,7.1,11.6,12.4c3.2,6.3,7.2,14,19.1,19.6c11.8,5.5,20.4,3.6,27.2,2c5.9-1.3,10.1-2.3,17,0.9c6.9,3.2,8.9,7.1,11.6,12.4
		c3.2,6.3,7.2,14,19.1,19.6c11.8,5.5,20.4,3.6,27.2,2c5.9-1.3,10.1-2.3,17,0.9c6.9,3.2,8.9,7.1,11.6,12.4c3.2,6.3,7.2,14,19.1,19.6
		c11.8,5.5,20.4,3.6,27.3,2c5.9-1.3,10.1-2.3,17,0.9c6.9,3.2,8.9,7.1,11.6,12.4c3.2,6.3,7.2,14,19.1,19.6c11.8,5.5,20.4,3.6,27.3,2
		c5.9-1.3,10.1-2.3,17,0.9c6.9,3.2,8.9,7.1,11.6,12.4c3.2,6.3,7.2,14,19.1,19.6c11.8,5.5,20.4,3.6,27.3,2c5.9-1.3,10.1-2.3,17,0.9
		c6.9,3.2,8.9,7.1,11.7,12.4c3.2,6.3,7.2,14.1,19.1,19.6c11.9,5.5,20.4,3.6,27.3,2c5.9-1.3,10.1-2.3,17,0.9c2.7,1.2,5.8,0.9,8.2-0.8
		C464.7,578.8,465.9,575.9,465.4,573z M307.4,96.3c0-13.1,6.6-25.2,17.7-32.3c11.1-7.1,24.8-8,36.7-2.4l4,1.9
		c15.4,7.2,24.3,23.9,21.6,40.7l-3.7,23.1c-0.6,3.5,1.3,7,4.5,8.5c3.2,1.5,7.1,0.7,9.4-2l15.3-17.6c11.1-12.8,29.7-16.8,45.1-9.6
		c12.3,5.7,20.5,17.2,21.9,30.7c1.4,13.5-4.2,26.4-15.1,34.6l-43.2,32.5L307.4,151L307.4,96.3z M412,217.5l-6.8,14.5l-108.8-50.7
		l6.8-14.5L412,217.5z M286.5,194.3L401.8,248l26.7,183c-5.3-0.4-9.9,0.5-13.8,1.2c-6.3,1.2-10.8,2.1-18.4-1.5
		c-7.6-3.6-9.9-7.6-13-13.2c-3.5-6.3-7.9-14.2-20.2-19.9c-12.3-5.8-21.2-4-28.2-2.7c-6.3,1.2-10.8,2.1-18.4-1.4
		c-7.6-3.5-9.8-7.6-12.9-13.2c-3.5-6.3-7.8-14.2-20.2-19.9c-12.3-5.7-21.1-4-28.2-2.7c-6.3,1.2-10.8,2.1-18.4-1.4
		c-7.6-3.5-9.8-7.6-12.9-13.2c-3.5-6.3-7.8-14.2-20.2-19.9c-12.3-5.7-21.1-4-28.2-2.6c-6.3,1.2-10.8,2.1-18.4-1.4
		c-7.6-3.5-9.8-7.6-12.9-13.2c-2.3-4.2-5-9-10.1-13.4L286.5,194.3z M433.6,564.8c-5.9,1.3-10.1,2.3-17-0.9
		c-6.9-3.2-8.9-7.1-11.7-12.4c-3.2-6.3-7.2-14.1-19.1-19.6s-20.4-3.6-27.3-2c-5.9,1.3-10.1,2.3-17-0.9c-6.9-3.2-8.9-7.1-11.6-12.4
		c-3.2-6.3-7.2-14-19.1-19.6s-20.4-3.6-27.3-2c-5.9,1.3-10.1,2.3-17-0.9c-6.9-3.2-8.9-7.1-11.6-12.4c-3.2-6.3-7.2-14-19.1-19.6
		c-11.8-5.5-20.4-3.6-27.3-2c-5.9,1.3-10.1,2.3-17-0.9c-6.9-3.2-8.9-7.1-11.6-12.4c-3.2-6.3-7.2-14-19.1-19.6
		c-11.8-5.5-20.4-3.6-27.3-2c-5.9,1.3-10.1,2.3-17-0.9c-6.9-3.2-8.8-7.1-11.6-12.4c-3.2-6.3-7.2-14-19.1-19.6
		c-11.8-5.5-20.4-3.6-27.3-2c-5.9,1.3-10.1,2.3-17-0.9c-6.9-3.2-8.9-7.1-11.6-12.4c-1.9-3.7-4.1-8-8.1-12l97.2-62.8
		c5.6,3.2,7.9,6.9,10.6,11.8c3.5,6.3,7.8,14.2,20.2,19.9c12.3,5.7,21.1,4,28.2,2.7c6.3-1.2,10.8-2.1,18.4,1.4
		c7.6,3.5,9.8,7.6,12.9,13.2c3.5,6.3,7.8,14.2,20.2,19.9c12.3,5.7,21.1,4,28.2,2.7c6.3-1.2,10.8-2.1,18.4,1.4
		c7.6,3.5,9.8,7.6,12.9,13.2c3.5,6.3,7.8,14.2,20.2,19.9c12.3,5.7,21.1,4,28.2,2.7c6.3-1.2,10.8-2.1,18.4,1.4
		c7.6,3.6,9.9,7.6,13,13.2c3.5,6.3,7.9,14.2,20.2,19.9c12.3,5.8,21.1,4,28.2,2.7c4.7-0.9,8.4-1.6,13.2-0.5l16.9,115.8
		C442.3,562.9,437.7,563.9,433.6,564.8z"/>
	<circle class="st2" cx="246.3" cy="440.3" r="8"/>
	<circle class="st2" cx="282.5" cy="457.2" r="8"/>
	<circle class="st2" cx="318.8" cy="474.1" r="8"/>
	<circle class="st2" cx="355" cy="491" r="8"/>
	<circle class="st2" cx="391.3" cy="507.9" r="8"/>
	<circle class="st2" cx="427.5" cy="524.8" r="8"/>
	<circle class="st2" cx="65" cy="355.8" r="8"/>
	<circle class="st2" cx="101.3" cy="372.7" r="8"/>
	<circle class="st2" cx="137.5" cy="389.6" r="8"/>
	<circle class="st2" cx="173.8" cy="406.5" r="8"/>
	<circle class="st2" cx="210" cy="423.4" r="8"/>
	<circle class="st2" cx="293.6" cy="338.8" r="8"/>
	<circle class="st2" cx="329.9" cy="355.7" r="8"/>
	<circle class="st2" cx="366.1" cy="372.6" r="8"/>
	<circle class="st2" cx="402.4" cy="389.5" r="8"/>
	<circle class="st2" cx="184.9" cy="288.1" r="8"/>
	<circle class="st2" cx="221.1" cy="305" r="8"/>
	<circle class="st2" cx="257.4" cy="321.9" r="8"/>
</g>
</svg>
