<?xml version="1.0" encoding="iso-8859-1"?>
<!-- Generator: Adobe Illustrator 19.0.0, SVG Export Plug-In . SVG Version: 6.00 Build 0)  -->
<svg version="1.1" id="Capa_1" xmlns="http://www.w3.org/2000/svg" xmlns:xlink="http://www.w3.org/1999/xlink" x="0px" y="0px"
	 viewBox="0 0 512.001 512.001" style="enable-background:new 0 0 512.001 512.001;" xml:space="preserve">
<path style="fill:#57555C;" d="M440.601,71.15c-46.888-46.878-97.557-72.217-113.183-56.591
	c-43.606,47.668-76.609,117.414-78.46,181.989l-0.28,9.934l-42.446,42.446l-9.934,0.28c-28.401,0.81-56.261,6.102-82.611,15.496
	c-33.553,11.945-72.677,38.545-99.377,62.964c-15.626,15.626,9.714,66.295,56.591,113.183
	c46.888,46.878,97.557,72.217,113.183,56.591c43.606-47.668,76.609-117.414,78.46-181.989l0.28-9.934l42.446-42.446l9.934-0.28
	c28.401-0.81,56.261-6.102,82.611-15.496c33.553-11.945,72.677-38.545,99.377-62.964C512.818,168.706,487.479,118.037,440.601,71.15
	z M227.45,284.29h0.01v0.01L227.45,284.29z"/>
<path d="M93.31,319.663c-3.911,3.901-3.911,10.244,0,14.145c3.901,3.911,10.234,3.911,14.145,0c3.901-3.901,3.901-10.244,0-14.145
	C103.543,315.752,97.211,315.752,93.31,319.663z"/>
<path d="M320.594,7.486c-0.104,0.105-0.207,0.212-0.307,0.321c-48.19,52.677-79.257,124.889-81.079,188.459l-0.168,5.955
	l-36.819,36.819c-3.923,0.392-43.147-1.049-91.64,16.24c-38.303,13.635-79.303,43.539-102.774,65.006
	c-0.109,0.1-0.217,0.203-0.322,0.308c-23.214,23.214,10.897,81.627,56.591,127.332c35.549,35.54,78.789,64.075,107.171,64.075
	c8.107,0,15.002-2.328,20.159-7.485c0.104-0.105,0.207-0.212,0.307-0.321c48.19-52.677,79.257-124.889,81.079-188.459l0.168-5.955
	l36.819-36.819l5.958-0.168c29.283-0.835,58.113-6.242,85.68-16.071c38.303-13.635,79.303-43.539,102.774-65.006
	c0.109-0.1,0.217-0.203,0.322-0.308c23.214-23.214-10.897-81.627-56.591-127.332C402.221,18.383,343.808-15.729,320.594,7.486z
	 M277.182,234.736c0.029,0.029,0.058,0.058,0.087,0.087l21.177,21.175l-42.145,42.145c-0.104,0.096-0.203,0.197-0.303,0.297
	c-14.292-14.292-26.675-26.675-42.441-42.441l42.444-42.444L277.182,234.736z M177.157,490.465
	c-2.473,2.231-12.401,3.579-33.217-6.829c-20.44-10.221-43.778-27.928-65.714-49.86c-21.934-21.938-39.641-45.277-49.862-65.716
	c-10.408-20.816-9.062-30.743-6.829-33.217c29.065-26.528,66.621-50.344,95.762-60.718c23.461-8.364,47.902-13.268,72.748-14.626
	c0.486,1.302,1.242,2.527,2.29,3.573l16.846,16.846l-74.008,24.671c-5.242,1.747-8.074,7.412-6.326,12.653
	c1.747,5.24,7.412,8.079,12.653,6.326l70.397-23.467L188.431,370.5c-1.748,5.241,1.084,10.906,6.326,12.653
	c5.207,1.741,10.897-1.056,12.653-6.326l24.671-74.008l16.846,16.846c1.038,1.038,2.251,1.792,3.541,2.279
	C248.859,379.153,220.415,443.075,177.157,490.465z M490.466,177.156c-29.065,26.528-66.621,50.344-95.762,60.718
	c-23.461,8.364-47.902,13.268-72.748,14.626c-1.335-3.579-2.63-3.5-19.136-20.42l74.008-24.671
	c5.242-1.747,8.074-7.412,6.326-12.653c-1.747-5.241-7.41-8.078-12.653-6.326l-70.397,23.467l23.467-70.397
	c1.748-5.241-1.084-10.906-6.326-12.653c-5.241-1.751-10.906,1.085-12.653,6.326l-24.671,74.008
	c-16.992-16.584-16.843-17.789-20.388-19.124c3.609-57.21,32.054-121.132,75.311-168.521c2.471-2.233,12.4-3.58,33.217,6.829
	c20.44,10.221,43.778,27.928,65.714,49.86c21.934,21.938,39.641,45.277,49.862,65.716
	C494.046,164.754,492.7,174.682,490.466,177.156z"/>
<g>
</g>
<g>
</g>
<g>
</g>
<g>
</g>
<g>
</g>
<g>
</g>
<g>
</g>
<g>
</g>
<g>
</g>
<g>
</g>
<g>
</g>
<g>
</g>
<g>
</g>
<g>
</g>
<g>
</g>
</svg>
