<?xml version="1.0" encoding="utf-8"?>
<!-- Generator: Adobe Illustrator 23.0.3, SVG Export Plug-In . SVG Version: 6.00 Build 0)  -->
<svg version="1.1" id="Capa_1" xmlns="http://www.w3.org/2000/svg" xmlns:xlink="http://www.w3.org/1999/xlink" x="0px" y="0px"
	 viewBox="0 0 283.5 283.5" style="enable-background:new 0 0 283.5 283.5;" xml:space="preserve">
<style type="text/css">
	.st0{fill:#D5D6DB;}
	.st1{fill:#E1E6E9;}
	.st2{fill:#5B725D;}
	.st3{fill:#3F5441;}
</style>
<polygon class="st0" points="81.6,174.4 78.4,204 77.5,212.2 69.9,283.5 0,265.7 9.4,228.6 9.4,228.6 11.8,219.2 11.9,219.2 
	26.4,161.9 31.7,163 "/>
<polygon class="st1" points="143.2,161.9 143.2,265.7 69.8,283.5 81.6,174.4 "/>
<polygon class="st0" points="143.2,161.9 143.2,265.7 216.5,283.5 204.8,174.4 "/>
<polygon class="st1" points="286.4,265.7 216.5,283.5 208.9,212.2 208,204 204.8,174.4 254.4,163 260,161.9 274.6,219.2 277,228.6 
	"/>
<polygon class="st2" points="277,228.6 221.1,208 208.9,212.2 143.2,234.5 77.5,212.2 65.3,208 9.4,228.6 11.8,219.2 11.9,219.2 
	65.3,199.4 78.4,204 143.2,226 208,204 221.1,199.4 274.6,219.2 "/>
<path class="st3" d="M215.9,72.8c0,40.2-72.8,157.5-72.8,157.5S70.4,113,70.4,72.8S103,0,143.2,0S215.9,32.6,215.9,72.8z"/>
<circle class="st1" cx="143.2" cy="72.7" r="46.1"/>
</svg>
