<?xml version="1.0" encoding="utf-8"?>
<!-- Generator: Adobe Illustrator 23.0.3, SVG Export Plug-In . SVG Version: 6.00 Build 0)  -->
<svg version="1.1" baseProfile="tiny" id="Capa_1" xmlns="http://www.w3.org/2000/svg" xmlns:xlink="http://www.w3.org/1999/xlink"
	 x="0px" y="0px" viewBox="0 0 468.3 468.3" xml:space="preserve">
<polygon fill="#D5D6DB" points="133.4,287.6 128.2,335.9 126.8,349.3 114.3,465.9 0,436.9 15.4,376.2 15.4,376.2 19.3,360.8 
	19.4,360.8 43.1,267.1 51.8,268.9 "/>
<polygon fill="#E1E6E9" points="234.1,267.1 234.1,436.9 114.2,465.9 133.4,287.6 "/>
<polygon fill="#D5D6DB" points="234.1,267.1 234.1,436.9 354,465.9 334.9,287.6 "/>
<polygon fill="#E1E6E9" points="468.3,436.9 354,465.9 341.5,349.3 340.1,335.9 334.9,287.6 416,269 425.2,267.1 449,360.8 
	452.9,376.2 "/>
<polygon fill="#5B725D" points="452.9,376.2 361.5,342.5 341.5,349.3 234.1,385.9 126.8,349.3 106.8,342.5 15.4,376.2 19.3,360.8 
	19.4,360.8 106.8,328.5 128.2,335.9 234.1,372 340.1,335.9 361.5,328.5 449,360.8 "/>
<path fill="#3F5441" d="M353.1,121.4c0,65.7-119,257.5-119,257.5s-119-191.8-119-257.5s53.3-119,119-119S353.1,55.7,353.1,121.4z"/>
<circle fill="#E1E6E9" cx="234.1" cy="121.3" r="75.3"/>
</svg>
