<?xml version="1.0" encoding="utf-8"?>
<!-- Generator: Adobe Illustrator 23.0.3, SVG Export Plug-In . SVG Version: 6.00 Build 0)  -->
<svg version="1.1" baseProfile="tiny" id="Слой_1"
	 xmlns="http://www.w3.org/2000/svg" xmlns:xlink="http://www.w3.org/1999/xlink" x="0px" y="0px" viewBox="0 0 41.3 8.4"
	 xml:space="preserve">
<g>
	<path fill-rule="evenodd" fill="#151717" d="M3.4,0c0.2,0.3,0.2,0.3,0.5,0.6c1.6,1.6,1.4,0.9,3.7,3.1C4.2,3.2,4.5,1.7,0,1.9
		c0.3,0.2,0.4,0.3,0.9,0.5c0.2,0.1,0.5,0.3,0.8,0.4C2.2,3,2.8,3.2,3.4,3.3c1.2,0.2,3,0.1,3.9,0.7C4.6,5,2.9,4.9,2.1,5.1
		C1.2,5.4,1.9,5,1.5,5.4c1.2,0.5,3.4,0.7,4.6,0c1.1-0.6,1.5-2,3.9-1c-1.4,0.9-4.1,2-4.7,4C7.1,8.4,8.6,6.9,9.4,6
		c2-2.1,1.5-1.5,4.6-1.6c-1.6,1-3.1,2-3.9,3.8c4.1-1.2,4.3-3.7,5.4-4C16,4.2,17.5,4,18.1,3.9c-1.2,0.8-3,2.2-3.5,3.8
		c2.3-0.4,3.3-1.8,3.9-3.9c0.5-0.1,2-0.7,2.3-0.7c0.6,0,1.8,0.5,2.2,0.8c0.2,0.3,0.9,3.6,3.9,3.8c-0.6-1.6-2.2-2.8-3.5-3.8
		c0.4,0.1,2.3,0.3,2.6,0.4c0.6,0.2,0.9,0.9,1.6,1.6c0.6,0.6,0.8,1,1.7,1.4c0.5,0.3,1.6,0.8,2.1,0.9c-0.4-1.1-2.7-3.4-4-3.8l2.9-0.1
		c0.7,0.3,2.9,3.8,5.8,4c-0.7-2.3-3.9-3.4-4.6-4c0.5-0.2,1.8-0.4,2.3-0.2C33.8,4.3,34,4.7,34.4,5c1.8,1.4,4.9,1,5.3,0.3
		C37.9,4.7,35.5,4.9,34,4c2.1-0.9,5-0.2,7.3-2c-4.2-0.6-4.6,1.6-7.6,1.7c0,0,1.3-1.2,2.2-1.8C36.7,1.4,37.6,0.7,38,0
		c-4.1,0.1-5,3.7-5,3.8c-1,0.4-3.3,0.5-4.6,0.4c1.2-0.6,2.7-1.7,3.7-2.6l1-1c-3.9,0.4-4,0.9-5.5,3.7l-3.5-0.5
		c0.5-0.6,3.8-2.5,4.5-3.1c-4-0.1-4.5,2.1-5.2,2.9c-0.7-0.1-2.3-0.8-2.8-0.8c-0.5,0-1.8,0.7-2.7,0.8c-0.3-0.8-1.2-1.9-1.8-2.3
		c-0.9-0.5-2.2-0.7-3.3-0.7c0.5,0.6,2.6,1.8,3.5,2.3l1,0.8c0-0.1,0.1,0.1,0.1,0.1l-3.5,0.3c-0.8-1-0.7-1.8-2-2.7
		c-0.9-0.6-2.4-0.7-3.5-0.9c0.1,0.5,1.7,1.6,2.1,2c0.9,0.7,1.6,1.1,2.6,1.8L8.4,3.8C7.8,2.4,7.7,1.9,6.6,1.1C5.8,0.5,4.7,0,3.4,0
		L3.4,0z"/>
</g>
</svg>
